<?xml version="1.0" encoding="UTF-8" standalone="no"?>
<!DOCTYPE svg PUBLIC "-//W3C//DTD SVG 1.1//EN"
 "http://www.w3.org/Graphics/SVG/1.1/DTD/svg11.dtd">
<!-- Generated by graphviz version 2.40.1 (0)
 -->
<!-- Title: undefined Pages: 1 -->
<svg width="730pt" height="201pt"
 viewBox="0.00 0.00 729.65 200.60" xmlns="http://www.w3.org/2000/svg" xmlns:xlink="http://www.w3.org/1999/xlink">
<g id="graph0" class="graph" transform="scale(1 1) rotate(0) translate(28.8 171.8)">
<title>undefined</title>
<polygon fill="#ffffff" stroke="transparent" points="-28.8,28.8 -28.8,-171.8 700.8528,-171.8 700.8528,28.8 -28.8,28.8"/>
<text text-anchor="start" x="327.5264" y="-8.4" font-family="Helvetica,sans-Serif" font-weight="bold" font-size="12.00" fill="#000000">db</text>
<!-- documents -->
<g id="node1" class="node">
<title>documents</title>
<path fill="none" stroke="#000000" d="M12,-47C12,-47 132,-47 132,-47 138,-47 144,-53 144,-59 144,-59 144,-105 144,-105 144,-111 138,-117 132,-117 132,-117 12,-117 12,-117 6,-117 0,-111 0,-105 0,-105 0,-59 0,-59 0,-53 6,-47 12,-47"/>
<text text-anchor="start" x="32" y="-96.6" font-family="Helvetica,sans-Serif" font-weight="bold" font-size="13.00" fill="#000000">documents</text>
<polyline fill="none" stroke="#000000" points="0,-87 144,-87 "/>
<text text-anchor="start" x="7" y="-73.4" font-family="Helvetica,sans-Serif" font-size="12.00" fill="#000000">id* </text>
<text text-anchor="start" x="28" y="-73.4" font-family="Helvetica,sans-Serif" font-weight="bold" font-size="12.00" fill="#000000">integer</text>
<text text-anchor="start" x="7" y="-56.4" font-family="Helvetica,sans-Serif" font-size="12.00" fill="#000000">filename </text>
<text text-anchor="start" x="64" y="-56.4" font-family="Helvetica,sans-Serif" font-weight="bold" font-size="12.00" fill="#000000">text</text>
</g>
<!-- codes -->
<g id="node2" class="node">
<title>codes</title>
<path fill="none" stroke="#000000" d="M364.0352,-21.5C364.0352,-21.5 484.0352,-21.5 484.0352,-21.5 490.0352,-21.5 496.0352,-27.5 496.0352,-33.5 496.0352,-33.5 496.0352,-130.5 496.0352,-130.5 496.0352,-136.5 490.0352,-142.5 484.0352,-142.5 484.0352,-142.5 364.0352,-142.5 364.0352,-142.5 358.0352,-142.5 352.0352,-136.5 352.0352,-130.5 352.0352,-130.5 352.0352,-33.5 352.0352,-33.5 352.0352,-27.5 358.0352,-21.5 364.0352,-21.5"/>
<text text-anchor="start" x="403.0352" y="-122.1" font-family="Helvetica,sans-Serif" font-weight="bold" font-size="13.00" fill="#000000">codes</text>
<polyline fill="none" stroke="#000000" points="352.0352,-112.5 496.0352,-112.5 "/>
<text text-anchor="start" x="359.0352" y="-98.4" font-family="Helvetica,sans-Serif" font-size="12.00" fill="#000000">id* </text>
<text text-anchor="start" x="380.0352" y="-98.4" font-family="Helvetica,sans-Serif" font-weight="bold" font-size="12.00" fill="#000000">integer</text>
<text text-anchor="start" x="359.0352" y="-81.4" font-family="Helvetica,sans-Serif" font-size="12.00" fill="#000000">name </text>
<text text-anchor="start" x="398.0352" y="-81.4" font-family="Helvetica,sans-Serif" font-weight="bold" font-size="12.00" fill="#000000">text</text>
<text text-anchor="start" x="359.0352" y="-64.4" font-family="Helvetica,sans-Serif" font-size="12.00" fill="#000000">ordinal </text>
<text text-anchor="start" x="405.0352" y="-64.4" font-family="Helvetica,sans-Serif" font-weight="bold" font-size="12.00" fill="#000000">integer</text>
<text text-anchor="start" x="359.0352" y="-47.4" font-family="Helvetica,sans-Serif" font-size="12.00" fill="#000000">source </text>
<text text-anchor="start" x="404.0352" y="-47.4" font-family="Helvetica,sans-Serif" font-weight="bold" font-size="12.00" fill="#000000">text</text>
<text text-anchor="start" x="359.0352" y="-30.4" font-family="Helvetica,sans-Serif" font-size="12.00" fill="#000000">language </text>
<text text-anchor="start" x="419.0352" y="-30.4" font-family="Helvetica,sans-Serif" font-weight="bold" font-size="12.00" fill="#000000">text</text>
</g>
<!-- targets -->
<g id="node3" class="node">
<title>targets</title>
<path fill="none" stroke="#000000" d="M540.0528,-47C540.0528,-47 660.0528,-47 660.0528,-47 666.0528,-47 672.0528,-53 672.0528,-59 672.0528,-59 672.0528,-105 672.0528,-105 672.0528,-111 666.0528,-117 660.0528,-117 660.0528,-117 540.0528,-117 540.0528,-117 534.0528,-117 528.0528,-111 528.0528,-105 528.0528,-105 528.0528,-59 528.0528,-59 528.0528,-53 534.0528,-47 540.0528,-47"/>
<text text-anchor="start" x="574.0528" y="-96.6" font-family="Helvetica,sans-Serif" font-weight="bold" font-size="13.00" fill="#000000">targets</text>
<polyline fill="none" stroke="#000000" points="528.0528,-87 672.0528,-87 "/>
<text text-anchor="start" x="535.0528" y="-73.4" font-family="Helvetica,sans-Serif" font-size="12.00" fill="#000000">filename </text>
<text text-anchor="start" x="592.0528" y="-73.4" font-family="Helvetica,sans-Serif" font-weight="bold" font-size="12.00" fill="#000000">text</text>
<text text-anchor="start" x="535.0528" y="-56.4" font-family="Helvetica,sans-Serif" font-size="12.00" fill="#000000">codename </text>
<text text-anchor="start" x="603.0528" y="-56.4" font-family="Helvetica,sans-Serif" font-weight="bold" font-size="12.00" fill="#000000">text</text>
</g>
<!-- targets&#45;&gt;codes -->
<g id="edge1" class="edge">
<title>targets&#45;&gt;codes</title>
<path fill="none" stroke="#000000" stroke-width=".9" d="M527.9518,-82C520.2824,-82 512.4463,-82 504.6869,-82"/>
<polygon fill="#000000" stroke="#000000" stroke-width=".9" points="504.3089,-79.2001 496.3089,-82 504.3088,-84.8001 504.3089,-79.2001"/>
<text text-anchor="middle" x="513.0823" y="-90.3928" font-family="Helvetica,sans-Serif" font-size="10.00" fill="#000000">name</text>
<text text-anchor="middle" x="511.1784" y="-68.6072" font-family="Helvetica,sans-Serif" font-size="10.00" fill="#000000">codename</text>
</g>
<!-- content -->
<g id="node4" class="node">
<title>content</title>
<path fill="none" stroke="#000000" d="M188.0176,-30C188.0176,-30 308.0176,-30 308.0176,-30 314.0176,-30 320.0176,-36 320.0176,-42 320.0176,-42 320.0176,-122 320.0176,-122 320.0176,-128 314.0176,-134 308.0176,-134 308.0176,-134 188.0176,-134 188.0176,-134 182.0176,-134 176.0176,-128 176.0176,-122 176.0176,-122 176.0176,-42 176.0176,-42 176.0176,-36 182.0176,-30 188.0176,-30"/>
<text text-anchor="start" x="220.0176" y="-113.6" font-family="Helvetica,sans-Serif" font-weight="bold" font-size="13.00" fill="#000000">content</text>
<polyline fill="none" stroke="#000000" points="176.0176,-104 320.0176,-104 "/>
<text text-anchor="start" x="183.0176" y="-90.4" font-family="Helvetica,sans-Serif" font-size="12.00" fill="#000000">id* </text>
<text text-anchor="start" x="204.0176" y="-90.4" font-family="Helvetica,sans-Serif" font-weight="bold" font-size="12.00" fill="#000000">integer</text>
<text text-anchor="start" x="183.0176" y="-73.4" font-family="Helvetica,sans-Serif" font-size="12.00" fill="#000000">document </text>
<text text-anchor="start" x="248.0176" y="-73.4" font-family="Helvetica,sans-Serif" font-weight="bold" font-size="12.00" fill="#000000">integer</text>
<text text-anchor="start" x="183.0176" y="-56.4" font-family="Helvetica,sans-Serif" font-size="12.00" fill="#000000">plain </text>
<text text-anchor="start" x="216.0176" y="-56.4" font-family="Helvetica,sans-Serif" font-weight="bold" font-size="12.00" fill="#000000">text</text>
<text text-anchor="start" x="183.0176" y="-39.4" font-family="Helvetica,sans-Serif" font-size="12.00" fill="#000000">code </text>
<text text-anchor="start" x="217.0176" y="-39.4" font-family="Helvetica,sans-Serif" font-weight="bold" font-size="12.00" fill="#000000">integer</text>
</g>
<!-- content&#45;&gt;documents -->
<g id="edge3" class="edge">
<title>content&#45;&gt;documents</title>
<path fill="none" stroke="#000000" stroke-width=".9" d="M175.9166,-82C168.2472,-82 160.4111,-82 152.6517,-82"/>
<polygon fill="#000000" stroke="#000000" stroke-width=".9" points="152.2737,-79.2001 144.2737,-82 152.2736,-84.8001 152.2737,-79.2001"/>
<text text-anchor="middle" x="161.0471" y="-90.3928" font-family="Helvetica,sans-Serif" font-size="10.00" fill="#000000">id</text>
<text text-anchor="middle" x="159.1432" y="-68.6072" font-family="Helvetica,sans-Serif" font-size="10.00" fill="#000000">document</text>
</g>
<!-- content&#45;&gt;codes -->
<g id="edge2" class="edge">
<title>content&#45;&gt;codes</title>
<path fill="none" stroke="#000000" stroke-width=".9" d="M320.1186,-82C327.788,-82 335.6241,-82 343.3835,-82"/>
<polygon fill="#000000" stroke="#000000" stroke-width=".9" points="343.7616,-84.8001 351.7615,-82 343.7615,-79.2001 343.7616,-84.8001"/>
<text text-anchor="middle" x="334.9881" y="-68.6072" font-family="Helvetica,sans-Serif" font-size="10.00" fill="#000000">id</text>
<text text-anchor="middle" x="336.892" y="-90.3928" font-family="Helvetica,sans-Serif" font-size="10.00" fill="#000000">code</text>
</g>
</g>
</svg>
